<?xml version="1.0" encoding="iso-8859-1"?>
<!-- Generator: Adobe Illustrator 19.0.0, SVG Export Plug-In . SVG Version: 6.00 Build 0)  -->
<svg version="1.1" id="Layer_1" xmlns="http://www.w3.org/2000/svg" xmlns:xlink="http://www.w3.org/1999/xlink" x="0px" y="0px"
	 viewBox="0 0 512 512" style="enable-background:new 0 0 512 512;" xml:space="preserve">
<polyline style="fill:#FF6465;" points="34.884,121.34 120.865,89.122 120.865,153.558 34.884,121.34 "/>
<path style="fill:#65687A;" d="M120.865,256.029c-4.479,0-8.108-3.63-8.108-8.108V80.473c0-4.478,3.629-8.108,8.108-8.108
	c4.479,0,8.108,3.63,8.108,8.108v167.448C128.973,252.398,125.344,256.029,120.865,256.029z"/>
<path style="fill:#70BBD6;" d="M412.757,205.459H288.469H142.486h-21.622V318.9c8.308,36.848,22.988,81.038,48.922,120.735h71.943
	h46.739H512C415.686,362.205,412.757,205.459,412.757,205.459z"/>
<path style="fill:#7DD2F0;" d="M142.486,205.459H99.243c0,0-2.929,156.747-99.243,234.176h71.943
	c25.934-39.697,40.614-83.888,48.922-120.736c8.308,36.849,22.988,81.039,48.922,120.736h71.943
	C145.416,362.205,142.486,205.459,142.486,205.459z"/>
<path style="fill:#65687A;" d="M71.943,439.634c25.934-39.697,40.614-83.888,48.922-120.736
	c8.308,36.849,22.988,81.039,48.922,120.736H71.943z"/>
<g>
</g>
<g>
</g>
<g>
</g>
<g>
</g>
<g>
</g>
<g>
</g>
<g>
</g>
<g>
</g>
<g>
</g>
<g>
</g>
<g>
</g>
<g>
</g>
<g>
</g>
<g>
</g>
<g>
</g>
</svg>
